<svg xmlns="http://www.w3.org/2000/svg" xmlns:xlink="http://www.w3.org/1999/xlink" width="500" height="355.27" viewBox="0 0 500 355.27">
  <defs>
    <clipPath id="clip-path">
      <rect id="Rectangle_3963" data-name="Rectangle 3963" width="500" height="355.275" fill="none"/>
    </clipPath>
    <clipPath id="clip-path-3">
      <rect id="Rectangle_3956" data-name="Rectangle 3956" width="166.451" height="17.013" transform="translate(170.196 315.295)" fill="none"/>
    </clipPath>
    <clipPath id="clip-No_order">
      <rect width="500" height="355.27"/>
    </clipPath>
  </defs>
  <g id="No_order" data-name="No order" clip-path="url(#clip-No_order)">
    <rect width="500" height="355.27" fill="#fff"/>
    <g id="Group_8616" data-name="Group 8616">
      <g id="Group_8615" data-name="Group 8615" clip-path="url(#clip-path)">
        <g id="Group_8614" data-name="Group 8614">
          <g id="Group_8613" data-name="Group 8613" clip-path="url(#clip-path)">
            <path id="Path_18188" data-name="Path 18188" d="M76.437,77.6c8.123,0,16.247-.021,24.369.031.865,0,2.338-.63,2.436.923.1,1.669-1.423,1.081-2.277,1.085q-24.708.052-49.416,0c-.855,0-2.4.577-2.278-1.085.1-1.506,1.578-.919,2.463-.923,8.231-.051,16.467-.031,24.7-.031"/>
            <path id="Path_18189" data-name="Path 18189" d="M99.438,54.918c-3.212-9.48-8.169-13.957-15.292-13.812-7.389.151-11.958,4.727-15.167,15.338-3.5-3.461-7.564-5.473-12.51-4.867A14.532,14.532,0,0,0,43.532,64.714c-.2,1.76-.907,1.975-2.338,1.966-6.671-.041-13.336-.009-20.005-.034-.821,0-2.083.324-2.02-1.072s1.342-.9,2.125-.908c5.764-.042,11.528-.1,17.29.018,1.96.039,2.913-.446,3.559-2.488C45.688,51,55.951,46.723,66.313,52.109c1.7.882,1.883.427,2.446-1.055,2.581-6.791,7.27-11.163,14.789-11.517,7.826-.367,13.071,3.651,16.083,10.622.788,1.822,1.421,1.661,2.948,1.037,9.712-3.966,19.464.73,22.4,10.939.7,2.45,1.745,3.232,4.153,3.06,2.7-.193,5.422-.052,8.135-.073.7-.005,1.489-.047,1.593.821.132,1.1-.719,1.243-1.567,1.242q-5.934,0-11.867-.015c-1.1,0-1.467-.55-1.68-1.636C121.117,52.2,111.633,48.08,99.438,54.918"/>
            <path id="Path_18190" data-name="Path 18190" d="M442.563,158.142c12.418-6.39,22.373-2.366,26.2,10.6.506,1.711,1.387,1.745,2.668,1.74,5.645-.012,11.3-.034,16.948.024,1.02.012,2.231-.512,3.154.67-.553,1.087-1.553.732-2.347.736-5.988.033-11.98-.114-17.96.08-2.643.087-3.68-.794-4.328-3.366-2.483-9.852-12.239-14.675-20.693-10.35a47.954,47.954,0,0,0-4.927,3.347c-.7-4.448-1.878-8.607-4.44-12.234-5.234-7.4-12.418-8.031-18.926-1.688a24.949,24.949,0,0,0-6.719,12.656c-2.8-1.793-5.431-3.4-8.683-3.542a14.794,14.794,0,0,0-15.737,13.533c-.144,1.513-.376,2.244-2.08,2.2-3.726-.1-7.457-.027-11.187-.045-.754,0-1.744.171-1.726-1.032s1.026-.968,1.757-.974c3.05-.033,6.1-.1,9.15.015a2.127,2.127,0,0,0,2.5-1.678,2.013,2.013,0,0,0,.038-.307c2.213-10.893,13.842-16.693,23.188-11.886,1.9.977,2.085-.307,2.52-1.436a23.874,23.874,0,0,1,7.434-10.323c6.26-4.988,13.374-4.258,18.592,1.826,2.85,3.318,4.377,7.3,5.609,11.441"/>
            <path id="Path_18191" data-name="Path 18191" d="M72.956,216.076c9.955-4.957,17.21-1.974,20.354,8.348.568,1.86,1.319,2.458,3.236,2.4,5.021-.141,10.048-.048,15.164-.048-.286,1.95-1.437,1.418-2.184,1.427-4.745.05-9.492-.042-14.237.057-1.863.041-2.682-.377-3.1-2.455-1.254-6.2-5.152-10.079-10.253-10.771-3.1-.42-4.926.322-10.075,4.181-1.215-6.914-3.761-13.13-11.81-13.312-7.588-.172-10.295,5.718-11.978,12.057C38.659,212.271,30.5,216.01,28.8,226.8c-.253,1.6-.635,2.087-2.2,2.04-3.334-.1-6.671-.032-10.03-.458,2-1.607,4.342-1.12,6.459-.95,2.959.237,4.219-.606,5.029-3.652,2.238-8.469,10.565-12.685,17.512-9.006,1.534.812,1.869.219,2.325-1.088a15.994,15.994,0,0,1,1.847-3.6c5.169-7.678,15.154-7.672,20.408-.056a32.332,32.332,0,0,1,2.813,6.048"/>
            <path id="Path_18192" data-name="Path 18192" d="M383.543,220.025c1.292.2.957,1.3,1.01,2.109a13.6,13.6,0,0,0,2.6,7.556,7.885,7.885,0,0,0,5.288,3.341c.667.09,1.467.13,1.592.961.151.991-.718.906-1.348,1.056-5.618,1.355-7.613,5.454-8.146,10.7-.094.924.349,2.463-.976,2.522-1.521.07-.836-1.533-1.007-2.389-1.027-5.157-2.332-10.011-8.7-10.981a.833.833,0,0,1-.18-1.643c6.728-1.46,8.211-6.613,9.032-12.345.128-.874.3-.853.835-.886" fill="#00d9ae"/>
            <path id="Path_18193" data-name="Path 18193" d="M347.363,63.177c-.118,1-.782.914-1.291,1.032-5.833,1.344-7.735,5.624-8.265,10.973-.081.809.427,2.141-.806,2.258-1.7.167-1-1.409-1.147-2.244-.918-5.22-2.3-10.035-8.59-11.077-.469-.078-.86-.244-.845-.821a.934.934,0,0,1,.8-.936c6.2-1.352,7.844-6.119,8.665-11.516.1-.706-.184-1.785,1.1-1.628.912.111.732.955.839,1.6a30.706,30.706,0,0,0,.878,4.628c1.129,3.386,3.158,5.952,6.885,6.764.7.152,1.609.141,1.774.97" fill="#00d9ae"/>
            <path id="Path_18194" data-name="Path 18194" d="M97.863,134.236c-.049.7-.513.871-1.119.992-6.1,1.217-7.878,5.709-8.427,11.138-.084.821.292,2.139-1.027,2.07-1.219-.065-.833-1.381-.963-2.211-.82-5.219-2.052-10.109-8.474-11.028-.462-.065-.872-.248-.947-.788-.1-.7.308-1,.929-1.137,6.055-1.291,7.746-5.9,8.5-11.206.1-.75-.06-1.813,1.017-1.826,1.129-.012.877,1.069.972,1.807.7,5.464,2.36,10.193,8.714,11.289a.949.949,0,0,1,.82.9" fill="#00d9ae"/>
            <path id="Path_18195" data-name="Path 18195" d="M92.8,267.779c.006.756-.328,1-.811,1.076-6.317,1.039-8.1,5.68-8.9,11.136-.115.776.451,2.149-.863,2.154-1.249,0-.821-1.395-.956-2.17-.93-5.328-2.31-10.246-8.806-11.178a.731.731,0,0,1-.642-.972,1.48,1.48,0,0,1,.91-.821c5.922-1.215,7.55-5.732,8.506-10.844.141-.752-.282-2.155,1.01-2.128,1.323.028.758,1.4.9,2.163.957,5.241,2.566,9.9,8.786,10.9.36.059.655.505.875.685" fill="#00d9ae"/>
            <path id="Path_18196" data-name="Path 18196" d="M92.8,267.779c.006.756-.328,1-.811,1.076-6.317,1.039-8.1,5.68-8.9,11.136-.115.776.451,2.149-.863,2.154-1.249,0-.821-1.395-.956-2.17-.93-5.328-2.31-10.246-8.806-11.178a.731.731,0,0,1-.642-.972,1.48,1.48,0,0,1,.91-.821c5.922-1.215,7.55-5.732,8.506-10.844.141-.752-.282-2.155,1.01-2.128,1.323.028.758,1.4.9,2.163.957,5.241,2.566,9.9,8.786,10.9C92.283,267.153,92.578,267.6,92.8,267.779Z" fill="none" stroke="#00d9ae" stroke-width="1"/>
            <path id="Path_18197" data-name="Path 18197" d="M451.2,184.9c-8.249,0-16.5.02-24.747-.028-.868-.006-2.4.615-2.4-.949,0-1.505,1.514-1.005,2.417-1.007q24.577-.046,49.16-.006c.906,0,2.374-.431,2.216,1.2-.126,1.3-1.438.766-2.234.769-8.139.039-16.275.023-24.412.022"/>
            <path id="Path_18198" data-name="Path 18198" d="M25.247,232.968c6.313,0,12.624-.016,18.938.021.8,0,2.073-.437,2.164.888.118,1.7-1.376,1.129-2.219,1.129q-18.768.063-37.537.008c-.79,0-2.083.462-2.175-.863-.115-1.664,1.355-1.155,2.23-1.16,6.2-.044,12.4-.023,18.6-.023"/>
            <path id="Path_18199" data-name="Path 18199" d="M32.723,72.305c-5.085,0-10.171.018-15.255-.021-.806,0-2.061.412-2.133-.943-.074-1.391,1.173-1.1,2.006-1.1q15.593-.03,31.187,0c.86,0,2.123-.241,2.13,1.013.006,1.635-1.48,1.017-2.341,1.027-5.2.054-10.4.026-15.594.025"/>
            <path id="Path_18200" data-name="Path 18200" d="M369.484,177.78c4.954,0,9.908-.026,14.861.029.869.01,2.34-.534,2.3,1.1-.033,1.295-1.314.955-2.137.958q-15.368.034-30.736,0c-.9,0-2.386.418-2.281-1.137.1-1.483,1.573-.91,2.463-.924,5.174-.056,10.353-.023,15.532-.021"/>
            <path id="Path_18201" data-name="Path 18201" d="M477.769,177.58c-5.086,0-10.173.012-15.26-.007-.821,0-2.082.452-2.062-.964.014-1.1,1.129-.851,1.878-.852q15.6-.014,31.2.018c.785,0,2.155-.421,2.059.956-.082,1.232-1.4.821-2.214.829-5.2.034-10.4.018-15.6.02"/>
            <rect id="Rectangle_3955" data-name="Rectangle 3955" width="35.147" height="0.731" transform="translate(123.963 73.242)"/>
            <path id="Path_18202" data-name="Path 18202" d="M149.617,64.93c1.9,0,3.808-.03,5.71.02.679.018,1.36.262,1.361,1.144s-.672,1.147-1.353,1.152q-5.877.057-11.757.014c-.821-.005-1.642-.233-1.517-1.322.1-.853.835-.988,1.51-1,2.014-.031,4.034-.011,6.046-.008"/>
            <path id="Path_18203" data-name="Path 18203" d="M114.642,233.231H87.092l-.013-.733H114.65Z"/>
            <path id="Path_18204" data-name="Path 18204" d="M405.3,184.927c-1.914,0-3.829.012-5.747-.01-.562-.006-1.155-.082-1.223-.833-.077-.874.458-1.205,1.222-1.208q5.912-.018,11.822.007c.752,0,1.308.34,1.232,1.208-.068.735-.66.827-1.232.831-2.02.019-4.043.009-6.074.005"/>
            <path id="Path_18205" data-name="Path 18205" d="M367.731,124.139c-.122,1.4-.8,2.337-2.278,2.381a2.085,2.085,0,0,1-2.39-1.724,2.109,2.109,0,0,1-.023-.456,2.208,2.208,0,0,1,1.952-2.438,2.3,2.3,0,0,1,.262-.015c1.427-.088,2.22.849,2.477,2.252"/>
            <path id="Path_18206" data-name="Path 18206" d="M352.868,221.3a2.287,2.287,0,0,1-2.209-2.363c0-.024,0-.046,0-.071a2.075,2.075,0,0,1,1.846-2.279,2.212,2.212,0,0,1,2.764,2.341,2.354,2.354,0,0,1-2.336,2.372h-.069"/>
            <path id="Path_18207" data-name="Path 18207" d="M133.019,186.205a2.354,2.354,0,0,1-2.345,2.361h-.066a2.146,2.146,0,0,1-2.3-1.982,1.925,1.925,0,0,1,0-.356,2.089,2.089,0,0,1,1.88-2.28,2.166,2.166,0,0,1,.441,0c1.493-.022,2.176.913,2.388,2.253"/>
            <path id="Path_18208" data-name="Path 18208" d="M403.083,279.929a2.272,2.272,0,0,1-2.2,2.342q-.064,0-.129,0a2.2,2.2,0,0,1-2.346-2.047,2.314,2.314,0,0,1,0-.276,2.155,2.155,0,0,1,2-2.3,2.062,2.062,0,0,1,.343,0,2.127,2.127,0,0,1,2.332,1.9,2.033,2.033,0,0,1,.005.382"/>
            <path id="Path_18209" data-name="Path 18209" d="M56.347,287.03c-.234,1.37-.906,2.31-2.4,2.312a2.054,2.054,0,0,1-2.317-2.258,2.156,2.156,0,0,1,1.936-2.355,2.229,2.229,0,0,1,.337-.006,2.429,2.429,0,0,1,2.44,2.307"/>
            <path id="Path_18210" data-name="Path 18210" d="M158.69,25.461a2.29,2.29,0,0,1-2.43,2.14l-.041,0a2.044,2.044,0,0,1-2.2-2.361,2.144,2.144,0,0,1,2.016-2.265,2.2,2.2,0,0,1,.344.008,2.4,2.4,0,0,1,2.313,2.476Z"/>
            <path id="Path_18211" data-name="Path 18211" d="M441.7,91.461a2.247,2.247,0,0,1,2.2-2.292c.054,0,.107,0,.16,0a2.139,2.139,0,0,1,2.327,1.931,2.564,2.564,0,0,1-2.041,2.7,2.135,2.135,0,0,1-.277,0c-1.411,0-2.18-.934-2.369-2.344"/>
            <path id="Path_18212" data-name="Path 18212" d="M295.214,58.2c-.109,1.445-.828,2.378-2.272,2.411a2.325,2.325,0,1,1-.429-4.63,2.628,2.628,0,0,1,.3-.009c1.459-.062,2.2.849,2.406,2.228"/>
            <path id="Path_18213" data-name="Path 18213" d="M45.734,171.237a2.111,2.111,0,0,1-2.412,2.218,2.083,2.083,0,0,1-2.172-1.989c0-.044,0-.089,0-.133a2.105,2.105,0,0,1,1.829-2.352,2.147,2.147,0,0,1,.439-.009,2.083,2.083,0,0,1,2.317,2.265"/>
            <path id="Path_18214" data-name="Path 18214" d="M59.373,238.245H48.5v-.821a72.945,72.945,0,0,1,10.822-.165Z"/>
            <path id="Path_18215" data-name="Path 18215" d="M389.646,234.1c-3.189,1.729-4.823,4.081-6.13,7.413-1.4-3.265-2.937-5.7-5.81-7.437a15.272,15.272,0,0,0,5.572-7.506c1.712,3.134,3.121,5.874,6.368,7.53" fill="#fff"/>
            <path id="Path_18216" data-name="Path 18216" d="M336.836,70.648c-1.478-3.29-3.05-5.715-5.992-7.492,2.957-1.733,4.439-4.328,5.971-7.272,1.328,3.122,2.931,5.618,5.96,7.344a14.292,14.292,0,0,0-5.939,7.42" fill="#fff"/>
            <path id="Path_18217" data-name="Path 18217" d="M93.317,134.191a14.073,14.073,0,0,0-5.929,7.338c-1.47-3.1-2.893-5.715-5.929-7.225a18.771,18.771,0,0,0,5.835-7.378c1.419,3.065,3.094,5.561,6.023,7.265" fill="#f9fafb"/>
            <path id="Path_18218" data-name="Path 18218" d="M82.236,275.632c-1.424-3.694-3.107-6.023-5.86-7.736a14.788,14.788,0,0,0,5.7-7.557c1.516,3.326,3.05,5.9,6.056,7.492a14.624,14.624,0,0,0-5.9,7.8" fill="#fff"/>
            <path id="Path_18219" data-name="Path 18219" d="M328.37,272.269c-.3,4.288.645,8.509.7,12.774.009.688.478,1.81-.718,1.871-1.072.053-1-1.086-1.053-1.794-.37-4.7-.669-9.415-1-14.122-.087-1.22.115-2.486-.528-3.626-1.972-3.51-1.382-7.457-1.69-11.187q-1.708-20.739-3.231-41.5c-.949-12.94-2.117-25.862-2.992-38.812-.439-6.528-1.071-13.044-1.481-19.576-.191-3.042-1.008-3.609-3.923-2.887-26.614,6.589-53.743,6.452-80.841,5.79a205.209,205.209,0,0,1-39.963-4.8c-3.422-.769-3.68-.573-4.052,2.874-1.163,10.776-1.651,21.6-2.583,32.39-1.165,13.488-2.1,26.992-3.211,40.486-.822,9.891-1.546,19.793-2.258,29.7-.1,1.437.166,2.983-1.129,4.09q-.906,10.016-1.809,20.031a5.266,5.266,0,0,1-.063,1c-.218.728.46,2.111-1.036,1.949-1.129-.124-.652-1.211-.6-1.93.252-3.577.546-7.151.788-10.728.075-1.114.034-2.236.044-3.354,1.16-14.177,2.361-28.35,3.471-42.531,1.935-24.651,3.768-49.309,5.8-73.951.19-2.3-.616-2.918-2.463-3.45-5.661-1.636-11.135-3.719-15.917-7.287-3.415-2.549-5.623-5.715-5.891-10.168a71.745,71.745,0,0,0-1.3-9.042c-.666-3.5.591-6.178,3.123-8.441,3.435-3.073,7.56-4.907,11.813-6.456a128.356,128.356,0,0,1,25.609-6.191c2.317-.338,3.328-1.08,3.792-3.651,3.386-18.839,20.712-34.7,40.147-37.061a5.069,5.069,0,0,0,1.669-.22c1.321-.69,3.8.637,4.02-1.369.258-2.328,1.232-4.988-1.558-7.061a5.4,5.4,0,0,1-.948-7.571,5.293,5.293,0,0,1,.712-.754,5.731,5.731,0,0,1,7.939.257,5.491,5.491,0,0,1-.1,7.763,5.586,5.586,0,0,1-.681.564c-2.852,2.051-1.464,4.7-1.415,7.081.024,1.142,1.707.669,2.65.78,17.663,2.058,31.326,10.226,39.9,26.125a34.756,34.756,0,0,1,4.037,12.143c.308,2.427,1.34,3.293,3.756,3.694,8.91,1.487,17.688,3.559,25.966,7.331a31.185,31.185,0,0,1,6.4,3.77c3.372,2.646,5.144,5.869,3.977,10.342a26.811,26.811,0,0,0-.882,6.363c-.086,6.536-3.662,10.643-9,13.7a41.428,41.428,0,0,1-8.935,4c-2.105.616-2.772,1.649-2.592,3.856,1.084,13.053,2.01,26.12,3.023,39.178,1.249,16.1,2.478,32.2,3.821,48.284.879,10.44,1.248,20.933,2.685,31.334"/>
            <path id="Path_18220" data-name="Path 18220" d="M245.583,41.489c-.021,1.166-.917,1.364-1.473,1.847-.808.71-1.388.346-1.925-.4q-3.342-4.645-6.716-9.273c-.439-.606-.687-1.216.138-1.669.729-.4,1.566-1.751,2.239-.915,2.738,3.4,5.232,6.995,7.737,10.412" fill="#00d9ae"/>
            <path id="Path_18221" data-name="Path 18221" d="M260.032,43.832a22.586,22.586,0,0,1-1.9-1.329c-.7-.6-.247-1.208.148-1.76,2.155-3.014,4.341-6.009,6.475-9.039.7-.988,1.378-.939,2.218-.239.682.567,1.624,1.025.833,2.133q-3.43,4.8-6.9,9.563a4.372,4.372,0,0,1-.873.671" fill="#00d9ae"/>
            <path id="Path_18222" data-name="Path 18222" d="M249.8,32.259c0-1.689.044-3.381-.011-5.069-.041-1.259.4-1.834,1.744-1.835,1.269,0,1.837.42,1.821,1.745q-.064,5.234,0,10.475c.018,1.371-.37,2.08-1.91,2.029-1.4-.046-1.684-.754-1.658-1.936.038-1.8.008-3.606.014-5.409" fill="#00d9ae"/>
            <path id="Path_18223" data-name="Path 18223" d="M178.409,263.934c1.013-14.181,1.98-28.365,3.053-42.542,1.216-16.092,2.532-32.176,3.8-48.264.485-6.188,1-12.375,1.378-18.576.108-1.769.44-2.258,2.385-1.807,24.739,5.71,49.893,6.169,75.094,5.511,16.942-.443,33.789-2.015,50.231-6.443,2.273-.615,2.687.175,2.832,2.134.766,10.354,1.617,20.7,2.426,31.052q2.941,37.632,5.859,75.267c.182,2.359.206,4.734.309,7.1-.752.842,1.082,3.371-1.28,2.787-1.684-.416-4.961.775-4.9-2.928.015-.859.21-1.817-.741-2.4-4.625,1.807-9.378.963-14.106.676-4.745-2.279-9.961-2.553-15.022-3.376a256.329,256.329,0,0,0-31.815-2.891,244.83,244.83,0,0,0-48.792,3.342,196.926,196.926,0,0,0-26.851,6.271c-2.839.885-4.309.453-3.753-2.9a9.39,9.39,0,0,0-.1-2.017" fill="#fdfdfd"/>
            <path id="Path_18224" data-name="Path 18224" d="M246.121,142.723c-19.1-.282-41.5-1.59-63.393-7.452-5.789-1.552-11.486-3.427-16.5-6.841-5.789-3.946-5.815-7.987.04-11.817,7.8-5.108,16.773-7.1,25.708-9.071,2.976-.657,6.017-.974,8.989-1.625,1.6-.347,1.841.194,1.992,1.644.994,9.568,2.668,11.66,12.016,14.124,14.787,3.9,29.911,4.28,45.074,3.769a128.91,128.91,0,0,0,26.194-3.063c1.861-.452,3.684-1.062,5.522-1.6,5.737-1.7,9.091-5.313,8.945-11.509-.057-2.478.8-3.017,3.153-2.539,9.189,1.871,18.363,3.791,26.763,8.175,3.182,1.662,7.009,3.351,7.115,7.467.111,4.365-3.87,6.089-7.143,7.772-10.074,5.177-21.07,7.313-32.111,9.063-16.207,2.567-32.553,3.506-52.368,3.508" fill="#fff"/>
            <path id="Path_18225" data-name="Path 18225" d="M244.558,70.856a85.1,85.1,0,0,0,14.332.11c-.972-1.676-2.213-1.311-3.16-1.223-2.428.224-2.36-1.24-2.434-2.97-.085-2.073,1.071-2.136,2.574-2.017,22.713,1.8,40.1,19,42.212,38.665.324,3.009-.806,4.377-3.225,5.434a64.032,64.032,0,0,1-18.7,4.484c-19.627,2.2-39.218,2.235-58.666-1.814-.662-.138-1.318-.308-1.966-.5-11.778-3.489-11.344-3.592-8.234-14.714,4.78-17.1,22.094-30.475,39.827-31.5,1.316-.076,2.794-.49,2.714,1.787-.064,1.781.179,3.479-2.525,3.151-.863-.108-2.067-.521-2.754,1.107" fill="#fff"/>
            <path id="Path_18226" data-name="Path 18226" d="M163.286,130.008c13.075,8.137,27.8,10.509,42.532,12.61a313.294,313.294,0,0,0,55.42,2.662c18.853-.668,37.617-2.282,55.933-7.208,6.762-1.817,13.342-4.088,19.377-8.271.387,5.479-1.369,9.558-5.918,12.436-8.186,5.181-17.377,7.493-26.7,9.218-25.133,4.647-50.5,4.966-75.934,3.664-15.363-.785-30.573-2.535-45.382-6.936a59.97,59.97,0,0,1-10.354-4.144c-5.576-2.872-9.607-6.775-8.971-14.031" fill="#d6dfe9"/>
            <path id="Path_18227" data-name="Path 18227" d="M297.679,110.45c.4,3.236-1.059,5.206-3.771,6.545a51.32,51.32,0,0,1-16.918,4.5c-18.907,2.234-37.809,2.389-56.613-1.151a43.866,43.866,0,0,1-9.676-2.975c-2.9-1.284-4.926-3.159-4.473-6.907,14.626,6.13,30.124,6.961,45.623,6.957,15.538,0,31.081-.807,45.828-6.973" fill="#d6dfe9"/>
            <path id="Path_18228" data-name="Path 18228" d="M201.576,178.652c0-4.954-.02-9.908.02-14.86.005-.792-.424-2.053.989-2.064s1.009,1.253,1.01,2.044q.042,15.03,0,30.061c0,.806.3,2.027-1.155,1.889-1.141-.1-.848-1.156-.852-1.87-.024-5.066-.012-10.132-.012-15.2" fill="#00d9ae"/>
            <path id="Path_18229" data-name="Path 18229" d="M275.988,209.683v-34.2l.676-.01v34.237Z" fill="#00d9ae"/>
            <path id="Path_18230" data-name="Path 18230" d="M229.441,168.271c.274,0,.5,10.88.5,24.3s-.223,24.3-.5,24.3-.5-10.88-.5-24.3.222-24.3.5-24.3" fill="#00d9ae"/>
            <path id="Path_18231" data-name="Path 18231" d="M303.509,154.952c.259,0,.469,10.642.469,23.769s-.21,23.769-.469,23.769-.469-10.642-.469-23.769.21-23.769.469-23.769" fill="#00d9ae"/>
            <path id="Path_18232" data-name="Path 18232" d="M250.418,192.684V164.57c1.537,2.01,1.847,24.721,0,28.114" fill="#00d9ae"/>
            <path id="Path_18233" data-name="Path 18233" d="M251.348,206.042v27.3l-.763.011V206.022Z" fill="#00d9ae"/>
            <path id="Path_18234" data-name="Path 18234" d="M254.867,131.891c-.271,1.407-1.049,2.367-2.472,2.351a2.462,2.462,0,0,1-.2-4.918q.066,0,.132,0a2.488,2.488,0,0,1,2.542,2.433c0,.045,0,.088,0,.131" fill="#00d9ae"/>
            <path id="Path_18235" data-name="Path 18235" d="M205.051,126.765c-.161,1.581-.918,2.423-2.382,2.416a2.387,2.387,0,1,1,2.385-2.5c0,.026,0,.054,0,.079" fill="#00d9ae"/>
            <path id="Path_18236" data-name="Path 18236" d="M300.776,124.381c1.771,0,2.669.751,2.783,2.162a2.2,2.2,0,0,1-2.283,2.649,2.259,2.259,0,0,1-2.505-1.981c-.006-.053-.01-.1-.013-.158a2.361,2.361,0,0,1,2-2.67h0Z" fill="#00d9ae"/>
            <path id="Path_18237" data-name="Path 18237" d="M213.264,102.4a41.37,41.37,0,0,1,16-28.354c.638-.512,1.329-1.89,2.443-.471s-.155,1.957-.986,2.641c-6.714,5.542-11.551,12.33-13.784,20.823a46.507,46.507,0,0,0-1.039,5.308c-.152,1.078-.167,2.085-1.672,1.879-1.441-.2-.842-1.308-.961-1.826"/>
            <g id="Group_8612" data-name="Group 8612" opacity="0.1">
              <g id="Group_8611" data-name="Group 8611">
                <g id="Group_8610" data-name="Group 8610" clip-path="url(#clip-path-3)">
                  <path id="Path_18238" data-name="Path 18238" d="M336.647,323.8c0,4.7-37.261,8.508-83.226,8.508S170.2,328.5,170.2,323.8s37.262-8.506,83.225-8.506,83.226,3.809,83.226,8.506" fill="#06c4a0"/>
                </g>
              </g>
            </g>
            <path id="Path_18239" data-name="Path 18239" d="M243.841,195.775l6.619-2.989,6.621-2.988-7.435-12.932-5.3,2.392-5.3,2.39Zm2.956-15.926a.461.461,0,1,1,.61.231.461.461,0,0,1-.61-.231v0Zm-4.458,2.013a.458.458,0,1,1,.6.232.458.458,0,0,1-.6-.232Z" fill="#ffdb65"/>
            <path id="Path_18240" data-name="Path 18240" d="M243.841,195.775l6.619-2.989,6.621-2.988-7.435-12.932-5.3,2.392-5.3,2.39Zm2.956-15.926a.461.461,0,1,1,.61.231.461.461,0,0,1-.61-.231v0Zm-4.458,2.013a.458.458,0,1,1,.6.232.458.458,0,0,1-.6-.232Z" fill="none" stroke="#000" stroke-width="0.5"/>
            <path id="Path_18241" data-name="Path 18241" d="M242.884,181.95a.28.28,0,0,0,.176-.351c-1.633-3.614-2.318-6-.693-6.737,1.65-.745,2.842,1.091,4.6,4.974a.308.308,0,0,0,.554-.249c-1.889-4.185-3.237-6.133-5.356-5.177-2.316,1.046-1.159,4.115.343,7.44a.278.278,0,0,0,.379.1" fill="#170e0e"/>
            <path id="Path_18242" data-name="Path 18242" d="M275.551,221.253l-9.277-4.19L257,212.874l-13.024,22.662,11.6,5.233,11.6,5.235Zm-14.632-2.742a.808.808,0,1,1,1.068-.406v0a.809.809,0,0,1-1.068.4Zm7.811,3.528a.813.813,0,1,1,.813-.812.812.812,0,0,1-.813.812Z" fill="#ff8282"/>
            <path id="Path_18243" data-name="Path 18243" d="M275.551,221.253l-9.277-4.19L257,212.874l-13.024,22.662,11.6,5.233,11.6,5.235Zm-14.632-2.742a.808.808,0,1,1,1.068-.406v0a.809.809,0,0,1-1.068.4Zm7.811,3.528a.813.813,0,1,1,.813-.812.812.812,0,0,1-.813.812Z" fill="none" stroke="#000" stroke-width="0.5"/>
            <path id="Path_18244" data-name="Path 18244" d="M268.844,221.788a.489.489,0,0,1-.308-.615c2.86-6.334,4.06-10.519,1.213-11.8-2.891-1.306-4.979,1.91-8.052,8.716a.544.544,0,0,1-.972-.44c3.309-7.329,5.668-10.744,9.383-9.067,4.054,1.831,2.03,7.211-.6,13.034a.489.489,0,0,1-.664.175" fill="#170e0e"/>
            <path id="Path_18245" data-name="Path 18245" d="M230.075,271.532l16.3,29.546,40.018-14.96-5.917-33.425Zm54.937,13.8-38.08,14.233-15.105-27.384,47.7-17.83Z"/>
            <rect id="Rectangle_3957" data-name="Rectangle 3957" width="48.37" height="0.824" transform="translate(236.059 279.82) rotate(-20.547)"/>
            <rect id="Rectangle_3958" data-name="Rectangle 3958" width="44.314" height="0.824" transform="translate(242.498 291.252) rotate(-20.547)"/>
            <rect id="Rectangle_3959" data-name="Rectangle 3959" width="0.824" height="31.639" transform="translate(255.198 263.086) rotate(-20.498)"/>
            <rect id="Rectangle_3960" data-name="Rectangle 3960" width="0.824" height="31.809" transform="matrix(0.896, -0.445, 0.445, 0.896, 240.418, 268.64)"/>
            <rect id="Rectangle_3961" data-name="Rectangle 3961" width="0.824" height="31.88" transform="matrix(0.972, -0.233, 0.233, 0.972, 269.938, 257.507)"/>
            <path id="Path_18246" data-name="Path 18246" d="M223.39,267.137l-7.7,2.88.814,2.177,6.8-2.544,7.972,3.3.957-2.119Z"/>
            <path id="Path_18247" data-name="Path 18247" d="M242.44,307.626a7.237,7.237,0,0,0,9,4.338l36.785-13.081-.7-1.78-36.805,13.085a5.312,5.312,0,0,1-6.508-3.116,5.08,5.08,0,0,1,2.21-6.028l-1.071-1.9c-.019.009-.038.02-.056.03a6.643,6.643,0,0,0-.926.624,6.791,6.791,0,0,0-1.932,7.829"/>
            <path id="Path_18248" data-name="Path 18248" d="M220.634,271.655l-7.106,2.655a2.1,2.1,0,0,1-1.472-3.937l7.106-2.656a2.1,2.1,0,1,1,1.6,3.891c-.041.017-.083.032-.125.047" fill="#06c4a0"/>
            <path id="Path_18249" data-name="Path 18249" d="M220.634,271.655l-7.106,2.655a2.1,2.1,0,0,1-1.472-3.937l7.106-2.656a2.1,2.1,0,1,1,1.6,3.891C220.718,271.625,220.676,271.64,220.634,271.655Z" fill="none" stroke="#000" stroke-linejoin="round" stroke-width="0.998"/>
            <path id="Path_18250" data-name="Path 18250" d="M287.116,291.125a7.462,7.462,0,1,1-6.875,8.006,7.463,7.463,0,0,1,6.875-8.006" fill="#06c4a0"/>
            <path id="Path_18251" data-name="Path 18251" d="M287.116,291.125a7.462,7.462,0,1,1-6.875,8.006A7.463,7.463,0,0,1,287.116,291.125Z" fill="none" stroke="#000" stroke-linejoin="round" stroke-width="0.998"/>
            <path id="Path_18252" data-name="Path 18252" d="M287.377,294.5a4.075,4.075,0,1,1-3.755,4.373,4.075,4.075,0,0,1,3.755-4.373" fill="#06c4a0"/>
            <path id="Path_18253" data-name="Path 18253" d="M287.377,294.5a4.075,4.075,0,1,1-3.755,4.373A4.075,4.075,0,0,1,287.377,294.5Z" fill="none" stroke="#000" stroke-linejoin="round" stroke-width="1.084"/>
            <path id="Path_18254" data-name="Path 18254" d="M250.455,304.827a7.463,7.463,0,1,1-6.876,8.008,7.464,7.464,0,0,1,6.876-8.008" fill="#06c4a0"/>
            <path id="Path_18255" data-name="Path 18255" d="M250.455,304.827a7.463,7.463,0,1,1-6.876,8.008A7.464,7.464,0,0,1,250.455,304.827Z" fill="none" stroke="#000" stroke-linejoin="round" stroke-width="0.998"/>
            <path id="Path_18256" data-name="Path 18256" d="M250.712,308.2a4.075,4.075,0,1,1-3.754,4.373,4.077,4.077,0,0,1,3.754-4.373" fill="#06c4a0"/>
            <path id="Path_18257" data-name="Path 18257" d="M250.712,308.2a4.075,4.075,0,1,1-3.754,4.373A4.077,4.077,0,0,1,250.712,308.2Z" fill="none" stroke="#000" stroke-linejoin="round" stroke-width="1.084"/>
          </g>
        </g>
      </g>
    </g>
  </g>
</svg>
